<?xml version="1.0" standalone="no"?>
<svg width="64" height="64" viewBox="0 0 1024 768" version="1.1" xmlns="http://www.w3.org/2000/svg">
  <path d="M853 811h-682q-36 0 -61 -25t-25 -61v-682q0 -36 25 -61t61 -25h682q36 0 61 25t25 61v682q0 36 -25 61t-61 25zM755 499q-3 -148 -89 -241.5t-227 -99.5q-52 -3 -94.5 10.5t-88.5 40.5q41 -6 89 7.5t77 39.5q-79 6 -106 81q7 -2 15.5 -2t18 1t13.5 1q-42 14 -64.5 40.5    t-25.5 74.5q19 -13 47 -13q-30 17 -42.5 66t8.5 88q48 -51 103 -82.5t132 -36.5q-9 34 2 64t35.5 47t53 24.5t57.5 -1.5t48 -32q13 2 25 6t27.5 11t19.5 9q-9 -35 -47 -64q43 8 60 17q-2 -10 -10 -21t-15.5 -17t-21.5 -18z" transform="matrix(1,0,0,-1,0,768)"/>
</svg>