<?xml version="1.0" standalone="no"?>
<svg width="64" height="64" viewBox="0 0 425 384" version="1.1" xmlns="http://www.w3.org/2000/svg">
  <path d="M312 181c9 0 17 -8 17 -17v0v0v0v-15h-34v15c0 9 8 17 17 17zM397 325c15 0 28 -13 28 -28v-248c0 -15 -13 -28 -28 -28h-369c-15 0 -28 13 -28 28v248c0 15 13 28 28 28h30l26 32c3 4 8 6 13 6h74c6 0 12 -5 15 -10c3 -4 13 -16 23 -28h188zM374 77v0v67c0 3 -2 5 -5 5 h-6h-9v15v0c0 23 -19 42 -42 42s-41 -19 -41 -42v-15h-8h-6c-3 0 -5 -2 -5 -5v-67c0 -3 2 -5 5 -5h112c3 0 5 2 5 5z" transform="matrix(1,0,0,-1,0,384)"/>
</svg>