<?xml version="1.0" standalone="no"?>
<svg width="64" height="64" viewBox="0 0 512 384" version="1.1" xmlns="http://www.w3.org/2000/svg">
  <path d="M224 416c124 0 224 -100 224 -224s-100 -224 -224 -224s-224 100 -224 224s100 224 224 224zM360 56c10 10 19 21 26 33l-27 16l8 14l27 -16c13 25 21 52 22 81h-32v16h32c-1 29 -9 56 -22 81l-27 -16l-8 14l27 16c-7 12 -16 23 -26 33s-21 19 -33 26l-16 -27l-14 8 l16 27c-25 13 -52 21 -81 22v-32h-16v32c-29 -1 -56 -9 -81 -22l16 -27l-14 -8l-16 27c-12 -7 -23 -16 -33 -26s-19 -21 -26 -33l27 -16l-8 -14l-27 16c-13 -25 -21 -52 -22 -81h32v-16h-32c1 -29 9 -56 22 -81l27 16l8 -14l-27 -16c7 -12 16 -23 26 -33s21 -19 33 -26 l16 27l14 -8l-16 -27c25 -13 52 -21 81 -22v32h16v-32c29 1 56 9 81 22l-16 27l14 8l16 -27c12 7 23 16 33 26zM368 207v-32h-117c-6 -9 -16 -15 -27 -15c-18 0 -32 14 -32 32c0 12 6 22 16 28v68h32v-68c5 -3 9 -8 12 -13h116z" transform="matrix(1,0,0,-1,0,384)"/>
</svg>