<?xml version="1.0" standalone="no"?>
<svg width="64" height="64" viewBox="0 0 365 384" version="1.1" xmlns="http://www.w3.org/2000/svg">
  <path d="M359 204c4 -2 6 -6 6 -11c0 -4 -2 -8 -4 -10v0v0l-1 -1l-79 -79v0c-24 -27 -60 -44 -99 -44c-35 0 -66 14 -90 36v-1l-87 87c-3 3 -5 7 -5 11c0 3 1 7 3 9v0l80 79c24 27 60 45 99 45c35 0 67 -14 91 -36v1zM182 102c50 0 90 40 90 90s-40 90 -90 90s-90 -40 -90 -90 s40 -90 90 -90zM139 192c0 29 14 43 43 43s44 -14 44 -43s-15 -44 -44 -44s-43 15 -43 44z" transform="matrix(1,0,0,-1,0,384)"/>
</svg>